<?xml version="1.0" standalone="no"?>
<!DOCTYPE svg PUBLIC "-//W3C//DTD SVG 20010904//EN"
 "http://www.w3.org/TR/2001/REC-SVG-20010904/DTD/svg10.dtd">
<svg version="1.0" xmlns="http://www.w3.org/2000/svg"
 width="995.000000pt" height="1280.000000pt" viewBox="0 0 995.000000 1280.000000"
 preserveAspectRatio="xMidYMid meet">
<metadata>
Created by potrace 1.15, written by Peter Selinger 2001-2017
</metadata>
<g transform="translate(0.000000,1280.000000) scale(0.100000,-0.100000)"
fill="#000000" stroke="none">
<path d="M7158 11564 c-15 -8 -47 -16 -73 -18 -25 -2 -51 -8 -58 -14 -6 -5
-27 -13 -46 -17 -53 -11 -170 -62 -241 -105 -84 -51 -235 -196 -253 -243 -4
-10 -11 -15 -17 -12 -5 3 -10 -3 -10 -13 0 -11 -11 -27 -24 -36 -14 -8 -28
-26 -32 -38 -4 -13 -18 -34 -32 -48 -31 -31 -66 -106 -56 -122 4 -6 3 -8 -3
-5 -6 4 -15 -12 -22 -36 -7 -23 -27 -91 -46 -152 -19 -60 -37 -140 -40 -178
-4 -37 -11 -65 -16 -62 -5 4 -6 -1 -3 -10 13 -33 -49 -323 -83 -388 -8 -16
-12 -35 -9 -43 3 -8 2 -13 -2 -10 -4 2 -21 -21 -37 -52 -16 -31 -53 -92 -82
-134 -29 -43 -53 -81 -53 -85 0 -4 5 -1 11 7 7 10 9 11 7 2 -2 -8 -6 -12 -10
-10 -12 6 -59 -46 -54 -59 3 -7 2 -12 -3 -10 -9 2 -61 -56 -61 -70 0 -4 -14
-14 -30 -21 -17 -8 -28 -18 -24 -23 3 -5 -5 -9 -18 -10 -13 0 -17 -3 -10 -6 9
-3 3 -12 -18 -24 -18 -12 -28 -24 -24 -31 4 -6 3 -8 -3 -5 -8 5 -46 -22 -151
-107 -7 -6 -37 -33 -66 -61 -29 -27 -104 -97 -166 -155 -119 -111 -373 -383
-431 -461 -19 -26 -75 -100 -125 -166 -51 -66 -106 -147 -123 -181 -17 -35
-49 -81 -71 -103 -22 -23 -37 -46 -33 -52 3 -5 1 -7 -4 -4 -14 9 -37 -19 -27
-34 4 -8 3 -9 -4 -5 -7 4 -23 -17 -43 -56 -17 -35 -51 -91 -76 -126 -26 -36
-41 -67 -37 -75 4 -6 4 -9 -1 -5 -12 11 -150 -206 -140 -222 2 -4 -6 -24 -19
-43 -13 -19 -21 -38 -18 -42 4 -4 1 -5 -7 -3 -9 2 -34 -37 -72 -111 -33 -62
-75 -139 -94 -171 -19 -32 -35 -63 -35 -69 0 -13 -25 -70 -86 -199 -25 -51
-42 -98 -38 -104 4 -7 3 -8 -4 -4 -7 4 -12 0 -12 -10 0 -9 -12 -37 -26 -62
-14 -24 -24 -52 -21 -63 3 -10 1 -17 -4 -13 -5 3 -9 0 -9 -5 0 -6 0 -13 0 -16
0 -3 -24 -51 -54 -107 -115 -222 -145 -284 -152 -313 -4 -16 -12 -37 -19 -45
-7 -8 -23 -51 -35 -95 -13 -46 -47 -126 -81 -186 -32 -58 -59 -117 -61 -132
-4 -27 -13 -41 -29 -43 -22 -3 -23 -5 -9 -14 13 -8 12 -10 -2 -10 -10 0 -18
-4 -18 -9 0 -5 -28 -39 -62 -77 -136 -147 -150 -163 -143 -174 6 -9 -46 -50
-64 -50 -6 0 -11 -5 -11 -11 0 -13 -20 -33 -42 -42 -10 -3 -18 -13 -18 -22 0
-8 -6 -15 -12 -15 -9 0 -8 -4 2 -10 12 -7 8 -10 -15 -10 -21 0 -26 -3 -16 -9
11 -7 9 -10 -8 -16 -11 -3 -35 -26 -51 -51 -17 -24 -39 -44 -48 -44 -10 0 -13
-3 -7 -8 21 -14 9 -37 -30 -59 -22 -12 -33 -23 -25 -23 8 -1 5 -5 -8 -11 -31
-12 -172 -111 -172 -120 0 -4 -48 -46 -108 -93 -196 -157 -202 -163 -202 -205
0 -20 6 -45 13 -55 20 -28 97 -28 172 -1 71 25 262 125 310 160 34 26 254 165
260 165 2 0 45 28 95 61 50 34 93 60 96 57 2 -3 -2 -11 -11 -18 -8 -7 -15 -20
-15 -29 0 -9 -10 -27 -21 -41 -11 -14 -18 -19 -14 -13 4 9 1 11 -9 7 -9 -3
-16 -15 -16 -25 0 -11 -7 -22 -15 -25 -8 -3 -25 -22 -37 -42 -12 -21 -25 -39
-28 -42 -3 -3 -16 -21 -28 -41 -12 -19 -30 -44 -42 -54 -20 -18 -28 -41 -10
-30 6 3 10 1 10 -5 0 -6 -7 -13 -15 -16 -8 -4 -15 -11 -15 -18 0 -6 -29 -47
-65 -90 -67 -80 -81 -104 -44 -70 22 19 22 19 10 -4 -7 -12 -30 -48 -52 -80
-22 -31 -47 -70 -55 -87 -8 -16 -52 -79 -99 -140 -46 -60 -85 -116 -85 -122 0
-7 -4 -13 -9 -13 -15 0 -83 -109 -75 -122 4 -7 3 -8 -4 -4 -7 4 -12 3 -12 -3
0 -6 -18 -34 -40 -63 -22 -29 -40 -61 -40 -70 0 -10 -4 -18 -10 -18 -5 0 -10
-5 -10 -11 0 -15 -120 -179 -131 -179 -5 0 -9 -12 -9 -27 0 -14 -3 -24 -6 -20
-9 9 -56 -42 -49 -53 4 -6 1 -9 -6 -8 -7 2 -13 -2 -14 -9 0 -15 -14 -28 -28
-28 -7 0 -12 -7 -13 -15 -1 -29 -15 -60 -27 -57 -6 1 -19 -13 -29 -32 -9 -19
-25 -43 -35 -55 -10 -12 -33 -45 -52 -74 -19 -30 -40 -59 -46 -66 -7 -7 -22
-30 -34 -52 -12 -21 -25 -46 -30 -54 -5 -8 -13 -24 -17 -35 -10 -27 -9 -26
-18 -57 -5 -16 -12 -28 -17 -28 -5 0 -9 -9 -9 -21 0 -13 4 -18 13 -13 7 5 6 0
-3 -11 -17 -20 -21 -75 -5 -75 5 0 4 -5 -2 -11 -8 -8 -8 -20 -3 -34 5 -13 6
-26 2 -31 -4 -4 0 -5 8 -2 9 3 24 0 35 -8 29 -21 45 -17 81 22 19 19 39 32 44
29 6 -4 17 -1 25 5 8 7 15 9 15 6 0 -11 -50 -98 -76 -132 -13 -17 -20 -34 -17
-38 4 -3 1 -6 -5 -6 -6 0 -14 -15 -17 -32 -4 -18 -17 -48 -29 -68 -56 -90
-134 -293 -192 -500 -15 -52 -30 -100 -35 -105 -4 -6 -9 -28 -11 -50 -2 -22
-7 -43 -12 -46 -5 -4 -10 -17 -11 -30 -2 -20 -28 -104 -85 -276 -14 -42 -4
-84 18 -76 27 9 61 49 66 78 3 15 16 42 30 60 14 18 28 45 32 61 4 16 11 34
16 40 21 28 54 104 53 123 -1 12 4 21 13 21 10 0 13 8 9 28 -3 16 0 35 9 46 8
11 14 27 14 37 0 9 11 25 25 35 14 10 30 36 36 57 5 20 14 37 19 37 6 0 10 7
10 15 0 8 7 15 15 15 9 0 12 6 8 17 -4 11 -3 14 5 9 7 -4 13 -1 13 8 2 28 4
30 25 61 12 17 28 46 36 65 9 20 23 44 33 54 11 10 27 32 36 50 9 17 23 30 29
28 8 -2 10 3 6 13 -3 9 -2 13 3 10 6 -3 18 6 28 21 10 14 28 37 40 52 l22 27
10 -25 c7 -19 10 -21 10 -6 1 15 7 17 31 14 17 -3 33 -1 36 4 3 5 10 5 16 2 7
-4 8 -2 4 5 -4 6 0 14 11 17 10 3 27 9 38 14 11 4 39 13 62 19 28 8 44 18 49
33 4 12 13 28 20 36 8 7 14 21 14 31 0 10 9 26 20 36 11 10 17 22 14 26 -3 5
-1 9 3 9 5 0 18 7 29 16 17 14 17 15 1 10 -18 -6 -15 6 13 44 9 12 10 10 5
-10 -5 -21 -4 -22 5 -7 6 9 8 21 5 27 -8 12 21 80 34 80 6 0 8 7 5 15 -4 8 -1
15 5 15 6 0 11 -5 11 -11 0 -5 5 -7 10 -4 6 4 8 11 4 16 -3 6 0 18 8 27 29 37
65 108 71 142 9 48 27 81 39 74 7 -5 8 -3 4 5 -11 18 12 67 40 86 16 10 24 25
24 45 0 21 11 40 39 67 47 46 66 80 63 113 -2 19 -1 22 7 10 9 -12 11 -12 16
2 4 10 4 21 1 27 -4 5 10 27 29 48 19 21 35 48 35 61 0 12 4 22 10 22 5 0 14
10 21 21 8 15 8 19 0 15 -8 -5 -8 0 0 18 7 14 15 24 18 21 4 -2 12 5 19 16 7
10 8 19 3 19 -5 0 -12 -6 -14 -12 -4 -10 -6 -10 -6 -1 -1 7 11 20 27 30 42 27
66 63 42 63 -5 0 -10 -6 -10 -14 0 -8 -7 -17 -16 -20 -12 -5 -10 1 6 21 43 57
71 105 90 157 11 29 30 62 42 72 12 11 18 13 13 5 -5 -10 -4 -12 3 -7 7 4 12
14 12 22 0 8 4 14 10 14 10 0 81 133 79 147 -3 19 2 27 10 14 6 -9 11 2 15 33
5 34 14 51 32 63 15 10 24 23 21 33 -2 9 2 25 11 36 14 19 15 19 8 -1 -5 -17
-3 -17 14 4 11 13 18 31 15 40 -2 9 4 30 15 46 11 17 20 25 20 20 0 -6 -7 -21
-16 -33 -9 -13 -14 -26 -11 -28 3 -3 18 16 33 43 56 99 66 113 74 108 13 -8
60 70 60 100 0 14 3 24 8 24 4 -1 14 -1 22 0 11 1 12 3 3 9 -8 5 5 28 43 72
31 36 59 64 64 63 5 -2 18 13 30 32 25 40 34 45 24 13 -3 -13 -3 -20 1 -16 4
4 9 18 10 31 4 37 36 81 46 65 5 -7 9 -8 9 -3 1 13 70 90 70 77 0 -5 -7 -15
-15 -22 -8 -7 -15 -17 -15 -22 0 -11 95 70 95 80 0 14 17 32 28 32 7 0 3 -7
-7 -15 -11 -8 -15 -15 -9 -15 13 0 74 48 86 67 4 7 15 13 23 13 8 0 17 7 20
15 4 8 12 15 20 15 8 0 14 4 14 10 0 5 3 10 8 9 16 -2 51 14 47 22 -3 4 5 13
17 20 12 7 29 18 36 26 7 7 20 13 28 13 8 0 14 4 14 9 0 5 9 13 20 16 11 3 20
11 20 16 0 6 -6 7 -12 3 -7 -4 -10 -4 -6 1 10 10 44 30 88 51 19 9 38 21 41
26 3 5 10 10 15 11 5 1 8 6 6 10 -1 5 2 6 7 3 5 -3 14 1 21 9 7 8 18 15 26 15
7 0 15 8 19 18 3 11 17 24 32 31 19 9 23 15 14 20 -10 6 -9 10 4 14 9 4 13 3
10 -3 -9 -15 10 -12 44 8 17 9 31 22 31 28 0 6 12 17 27 25 15 8 38 26 51 42
13 15 30 27 38 27 9 0 12 4 9 10 -3 6 1 7 9 4 10 -4 18 1 23 12 9 25 48 57 72
59 16 1 18 -6 19 -59 1 -110 41 -237 87 -280 20 -18 29 -39 34 -80 7 -53 49
-126 72 -126 5 0 9 -6 9 -13 0 -6 19 -24 43 -39 52 -34 171 -127 175 -137 1
-4 -23 -13 -55 -20 -32 -7 -77 -20 -100 -28 -44 -15 -102 -72 -104 -101 -2
-49 4 -128 11 -148 7 -18 6 -22 -5 -17 -14 5 -20 -8 -16 -31 1 -5 -5 -6 -14
-2 -17 6 -59 -16 -50 -26 3 -3 -8 -11 -25 -18 -16 -7 -30 -17 -30 -22 0 -5 -4
-7 -9 -3 -5 3 -21 -6 -35 -20 -32 -32 -95 -67 -107 -60 -5 4 -9 2 -9 -3 0 -5
-47 -33 -105 -62 -57 -29 -102 -56 -100 -60 2 -4 -13 -12 -34 -18 -38 -12 -53
-23 -154 -114 -29 -26 -85 -75 -124 -109 -40 -34 -73 -66 -73 -71 0 -5 -11
-13 -24 -18 -13 -5 -27 -18 -30 -28 -4 -11 -17 -23 -29 -27 -13 -4 -17 -8 -10
-11 10 -4 9 -10 -3 -21 -9 -9 -33 -39 -53 -67 -21 -28 -48 -60 -61 -71 -12
-11 -33 -42 -47 -70 -25 -48 -119 -191 -152 -230 -9 -11 -23 -33 -31 -50 -8
-16 -25 -40 -38 -53 -13 -12 -19 -22 -13 -22 5 0 4 -10 -2 -25 -7 -14 -17 -25
-24 -25 -7 0 -10 -6 -7 -14 3 -8 1 -17 -5 -21 -6 -3 -11 -14 -11 -25 0 -10 -7
-20 -15 -24 -8 -3 -12 -12 -9 -20 3 -8 -3 -19 -16 -26 -11 -6 -18 -15 -15 -21
4 -5 1 -9 -4 -9 -6 0 -11 -11 -11 -25 0 -14 -4 -25 -9 -25 -5 0 -12 -7 -15
-16 -3 -8 -2 -12 4 -9 6 3 10 -1 10 -9 0 -9 -5 -16 -11 -16 -13 0 -42 -69 -35
-86 3 -8 2 -14 -2 -14 -7 0 -27 -61 -38 -115 -1 -5 -5 -18 -9 -27 -4 -11 -3
-18 4 -18 7 0 6 -9 -4 -24 -8 -13 -13 -31 -9 -40 3 -9 2 -16 -4 -16 -9 0 -19
-22 -28 -63 -2 -10 -11 -31 -19 -47 -13 -25 -19 -46 -39 -140 -21 -97 -27
-134 -31 -200 -2 -41 -7 -93 -10 -115 -3 -22 -10 -78 -16 -124 -5 -47 -12 -88
-14 -91 -4 -6 -18 -106 -31 -215 -2 -16 -8 -48 -14 -70 -6 -22 -11 -68 -10
-103 0 -35 -7 -80 -17 -103 -13 -33 -14 -48 -5 -73 6 -17 15 -49 21 -71 10
-37 16 -43 58 -58 27 -9 56 -17 65 -17 16 0 78 -29 88 -41 3 -3 20 -14 37 -23
28 -14 42 -15 100 -5 38 6 113 9 168 8 55 -1 146 -2 202 -1 l101 2 54 108 c29
59 58 110 65 115 9 6 47 101 46 117 0 3 8 11 18 18 20 14 20 26 0 92 -6 19
-11 53 -11 75 0 22 -6 74 -14 115 -16 82 -14 165 9 329 8 58 15 117 15 132 0
15 5 40 12 56 6 15 12 30 13 33 3 9 16 134 18 172 1 21 5 38 8 38 7 0 29 117
29 156 0 38 48 194 60 194 5 0 7 6 4 13 -5 15 62 168 78 178 6 4 16 29 23 55
7 27 17 49 23 49 19 0 86 97 127 184 28 59 72 110 313 356 89 92 162 170 162
175 0 14 123 130 160 151 19 11 47 27 62 37 80 51 149 91 170 98 12 4 40 18
60 30 21 13 40 24 42 24 20 0 278 133 282 145 4 9 13 14 21 11 23 -9 112 43
119 69 9 35 29 37 57 7 52 -56 59 -94 26 -136 -34 -43 -13 -42 31 1 35 35 40
46 40 84 -1 24 -7 61 -15 83 l-13 38 26 -5 c18 -4 38 2 59 16 38 26 41 40 12
60 -11 8 -16 18 -11 21 10 6 33 -17 51 -51 14 -27 14 -70 1 -78 -6 -4 -8 -11
-4 -16 3 -5 15 3 27 18 16 20 22 41 22 79 0 52 0 52 27 47 20 -4 52 7 118 41
50 25 95 46 101 46 15 0 1 -62 -18 -77 -28 -22 6 -25 37 -3 45 32 63 74 57
129 -5 35 -3 42 5 30 10 -14 17 -14 53 -3 23 6 65 24 94 39 42 21 51 29 46 45
-4 11 -4 20 0 20 10 0 45 -90 45 -115 0 -33 -20 -75 -36 -75 -7 0 -16 -4 -19
-10 -4 -7 3 -7 20 0 51 19 65 31 86 72 21 41 22 79 3 146 -5 19 -2 22 19 22
14 0 28 4 31 9 3 4 20 11 38 15 17 3 65 22 105 41 41 19 100 44 132 54 31 11
102 41 156 66 123 57 125 58 205 86 94 33 437 195 593 280 32 17 70 32 85 33
34 2 66 19 116 63 25 21 46 31 57 28 23 -7 79 16 126 53 21 16 58 37 83 47 76
30 104 46 127 74 l21 27 -30 2 c-39 3 -51 11 -44 28 8 20 -31 39 -50 23 -11
-9 -14 -8 -14 5 0 9 -4 16 -8 16 -4 0 -8 17 -7 39 0 29 4 37 15 34 11 -3 10
-1 -2 10 -10 8 -18 19 -18 24 0 17 -44 30 -74 22 -17 -5 -32 -6 -34 -4 -5 5
46 28 63 29 16 1 104 75 91 77 -22 5 -35 4 -66 -3 -19 -5 -46 -10 -60 -13 -39
-6 -115 -37 -201 -81 -32 -16 -64 -24 -100 -24 -30 0 -79 -7 -109 -16 -30 -9
-68 -18 -85 -20 -80 -11 -134 -22 -170 -34 -93 -31 -189 -69 -175 -70 8 0 2
-7 -14 -15 -15 -8 -32 -13 -36 -10 -5 3 -12 0 -15 -6 -4 -5 -14 -8 -22 -5 -9
4 -11 2 -7 -5 4 -7 1 -10 -7 -7 -8 3 -25 -3 -38 -13 -13 -10 -27 -16 -32 -13
-5 3 -9 0 -9 -6 0 -7 -7 -10 -15 -6 -8 3 -15 2 -15 -3 0 -15 -103 -72 -137
-75 -18 -2 -41 -10 -51 -19 -33 -30 -145 -76 -201 -83 -35 -4 -91 -23 -148
-50 -50 -24 -99 -44 -108 -44 -26 0 -138 -50 -162 -73 -13 -11 -23 -17 -23
-13 0 4 -7 0 -16 -8 -8 -9 -22 -16 -30 -16 -8 0 -14 -6 -14 -12 0 -9 -4 -8
-10 2 -6 9 -10 10 -10 3 0 -7 -18 -18 -40 -24 -21 -7 -37 -16 -34 -20 3 -5 -2
-6 -10 -3 -9 3 -16 2 -16 -4 0 -5 -14 -15 -31 -22 -24 -10 -51 -11 -132 -1
-177 21 -196 26 -365 109 -71 35 -132 97 -133 136 0 17 -2 41 -5 53 -2 12 0
25 5 28 6 3 6 18 1 34 -4 16 -6 31 -4 34 2 2 6 22 8 43 4 35 11 73 30 169 4
17 11 55 17 85 15 77 31 130 39 130 4 0 13 13 20 30 7 16 20 32 30 35 10 3 44
34 76 68 31 34 63 62 71 63 8 1 39 24 69 51 74 64 126 102 141 103 7 0 16 6
20 13 4 7 28 27 53 44 47 32 99 83 86 83 -5 0 -3 6 4 14 6 8 18 12 26 9 8 -3
14 1 14 11 0 9 7 16 15 16 22 0 93 52 98 73 3 9 15 17 26 17 19 0 26 10 22 33
0 4 7 7 17 7 18 0 217 197 262 260 14 19 39 50 56 70 83 96 151 199 146 222
-1 5 4 7 11 5 6 -1 11 4 10 11 -2 6 1 12 6 12 12 0 45 57 61 104 6 21 18 40
26 43 8 3 20 27 28 53 8 26 26 69 40 95 14 27 23 52 20 57 -3 4 -2 8 3 8 4 0
14 19 21 43 7 23 24 65 38 94 13 28 24 59 24 67 0 9 4 16 9 16 5 0 9 12 9 26
0 15 4 29 9 33 10 7 39 101 35 115 -2 4 1 13 6 20 4 6 10 29 11 51 2 22 6 42
11 45 4 3 10 25 13 50 9 79 48 273 64 323 18 58 31 280 21 362 -8 61 -9 152
-4 530 3 210 8 255 44 395 11 41 22 88 26 104 6 24 9 27 17 15 7 -10 8 -6 3
13 -8 36 8 62 17 28 7 -24 7 -24 8 -2 1 12 6 22 11 22 6 0 10 5 10 11 0 5 -5
7 -10 4 -15 -9 -4 42 15 71 9 14 20 22 25 19 4 -3 6 3 3 14 -3 13 6 24 32 40
20 12 42 20 48 19 31 -6 89 16 120 45 19 17 51 59 71 91 l35 60 11 -30 c20
-50 25 -162 9 -182 -8 -9 -19 -27 -26 -39 -11 -20 -10 -22 10 -20 12 1 44 15
70 30 40 24 54 41 84 100 l36 72 1 145 c1 135 -1 151 -27 224 -15 43 -34 91
-42 105 -29 57 -119 131 -267 220 -21 13 -38 26 -38 30 0 4 -19 14 -41 21 -23
8 -58 26 -78 41 -21 14 -48 30 -60 34 -12 4 -61 30 -107 58 -52 30 -97 50
-115 50 -17 0 -25 3 -18 8 14 8 -95 43 -188 60 -32 6 -108 9 -170 7 -61 -2
-110 0 -107 4 6 10 6 10 -28 -8z m557 -94 c3 -5 2 -10 -4 -10 -5 0 -13 5 -16
10 -3 6 -2 10 4 10 5 0 13 -4 16 -10z m-3085 -3148 c0 -5 -7 -17 -15 -28 -14
-18 -14 -17 -4 9 12 27 19 34 19 19z m4260 -2352 c0 -5 -2 -10 -4 -10 -3 0 -8
5 -11 10 -3 6 -1 10 4 10 6 0 11 -4 11 -10z m-3384 -138 c-12 -11 -18 7 -10
30 l8 23 4 -23 c2 -13 1 -26 -2 -30z m-15 -35 c-6 -8 -8 -17 -5 -20 4 -3 8
-30 9 -58 2 -29 13 -74 26 -101 22 -48 39 -62 39 -33 0 8 4 15 9 15 5 0 14 -7
21 -15 7 -8 16 -15 21 -15 4 0 25 -10 46 -22 21 -13 97 -40 168 -60 204 -57
251 -78 177 -78 -44 0 -165 -54 -194 -87 -35 -40 -42 -114 -17 -165 24 -48 24
-53 -3 -34 -13 9 -43 16 -70 16 -52 0 -143 30 -174 58 -10 9 -40 34 -66 55
-33 26 -59 60 -83 108 -19 39 -35 77 -35 85 0 7 -4 14 -9 14 -20 0 -18 41 2
58 12 10 23 24 25 32 2 8 10 22 18 31 8 8 14 21 14 28 0 15 32 75 43 79 4 2 5
8 1 13 -9 16 28 109 43 109 3 0 0 -6 -6 -13z m376 -498 c-19 -15 -40 -42 -47
-59 -7 -17 -15 -29 -17 -27 -9 10 31 89 54 107 40 31 49 11 10 -21z m33 -45
c0 -26 52 -30 104 -8 13 5 17 4 13 -3 -4 -6 -27 -16 -51 -22 -35 -9 -46 -17
-54 -40 -8 -22 -7 -31 1 -34 7 -3 -2 -5 -18 -4 -17 0 -40 -5 -51 -11 -20 -11
-21 -9 -16 41 3 32 12 60 23 73 22 23 49 28 49 8z m-652 -306 c-4 -16 52 -26
80 -14 15 6 26 6 33 -1 6 -6 -8 -19 -43 -38 -29 -16 -59 -30 -67 -31 -8 -2
-17 -7 -20 -12 -3 -4 -14 -11 -24 -15 -10 -4 -16 -11 -13 -16 3 -5 -3 -7 -14
-4 -35 9 -23 61 28 116 27 29 44 35 40 15z m-68 -148 c0 -5 -2 -10 -4 -10 -3
0 -8 5 -11 10 -3 6 -1 10 4 10 6 0 11 -4 11 -10z m-3400 -1864 c0 -3 -4 -8
-10 -11 -5 -3 -10 -1 -10 4 0 6 5 11 10 11 6 0 10 -2 10 -4z"/>
<path d="M7965 10379 c-4 -6 -5 -12 -2 -15 2 -3 7 2 10 11 7 17 1 20 -8 4z"/>
<path d="M7930 10336 c0 -8 4 -17 9 -20 5 -4 7 3 4 14 -6 23 -13 26 -13 6z"/>
<path d="M8765 6197 c10 -8 15 -19 12 -25 -5 -6 1 -8 13 -5 20 5 20 7 4 24 -9
11 -24 19 -32 19 -13 0 -12 -3 3 -13z"/>
<path d="M3160 4005 c0 -8 2 -15 4 -15 2 0 6 7 10 15 3 8 1 15 -4 15 -6 0 -10
-7 -10 -15z"/>
<path d="M1947 2323 c-4 -3 -7 -11 -7 -17 0 -6 5 -5 12 2 6 6 9 14 7 17 -3 3
-9 2 -12 -2z"/>
</g>
</svg>
